HIERARCHY
ROOT Hips
{
 OFFSET 0.000000 0.000000 0.000000
 CHANNELS 6 Xposition Yposition Zposition Yrotation Xrotation Zrotation
 JOINT Chest
 {
  OFFSET 0.000000 9.585900 0.002600
  CHANNELS 3 Yrotation Xrotation Zrotation
  JOINT Chest2
  {
   OFFSET 0.000000 9.601200 -0.005300
   CHANNELS 3 Yrotation Xrotation Zrotation
   JOINT Chest3
   {
    OFFSET 0.000000 9.561800 0.000000
    CHANNELS 3 Yrotation Xrotation Zrotation
    JOINT Chest4
    {
     OFFSET 0.000000 9.552100 0.000000
     CHANNELS 3 Yrotation Xrotation Zrotation
     JOINT Neck
     {
      OFFSET 0.000000 14.453000 0.000000
      CHANNELS 3 Yrotation Xrotation Zrotation
      JOINT Head
      {
       OFFSET 0.000000 8.936500 -0.011300
       CHANNELS 3 Yrotation Xrotation Zrotation
       End Site
       {
        OFFSET 0.000000 17.073600 -0.006000
       }
      }
     }
     JOINT RightCollar
     {
      OFFSET -2.921100 9.558500 0.000000
      CHANNELS 3 Yrotation Xrotation Zrotation
      JOINT RightShoulder
      {
       OFFSET -13.519700 0.000000 0.000000
       CHANNELS 3 Yrotation Xrotation Zrotation
       JOINT RightElbow
       {
        OFFSET 0.000000 -29.696600 0.000000
        CHANNELS 3 Yrotation Xrotation Zrotation
        JOINT RightWrist
        {
         OFFSET 0.000000 -24.004700 0.000000
         CHANNELS 3 Yrotation Xrotation Zrotation
         End Site
         {
          OFFSET 0.000000 -17.728500 0.000000
         }
        }
       }
      }
     }
     JOINT LeftCollar
     {
      OFFSET 2.921100 9.558500 0.000000
      CHANNELS 3 Yrotation Xrotation Zrotation
      JOINT LeftShoulder
      {
       OFFSET 13.519700 0.000000 0.000000
       CHANNELS 3 Yrotation Xrotation Zrotation
       JOINT LeftElbow
       {
        OFFSET 0.000000 -29.696600 0.000000
        CHANNELS 3 Yrotation Xrotation Zrotation
        JOINT LeftWrist
        {
         OFFSET 0.000000 -24.004700 0.000000
         CHANNELS 3 Yrotation Xrotation Zrotation
         End Site
         {
          OFFSET 0.000000 -17.728500 0.000000
         }
        }
       }
      }
     }
    }
   }
  }
 }
 JOINT RightHip
 {
  OFFSET -7.771700 -0.012900 -0.001300
  CHANNELS 3 Yrotation Xrotation Zrotation
  JOINT RightKnee
  {
   OFFSET 0.000000 -40.869800 0.001200
   CHANNELS 3 Yrotation Xrotation Zrotation
   JOINT RightAnkle
   {
    OFFSET 0.000000 -39.717900 0.002100
    CHANNELS 3 Yrotation Xrotation Zrotation
    JOINT RightToe
    {
     OFFSET 0.000000 -4.965400 11.033500
     CHANNELS 3 Yrotation Xrotation Zrotation
     End Site
     {
      OFFSET 0.000000 -1.423100 5.872300
     }
    }
   }
  }
 }
 JOINT LeftHip
 {
  OFFSET 7.771700 -0.012900 -0.001300
  CHANNELS 3 Yrotation Xrotation Zrotation
  JOINT LeftKnee
  {
   OFFSET 0.000000 -40.869800 0.001200
   CHANNELS 3 Yrotation Xrotation Zrotation
   JOINT LeftAnkle
   {
    OFFSET 0.000000 -39.717900 0.002100
    CHANNELS 3 Yrotation Xrotation Zrotation
    JOINT LeftToe
    {
     OFFSET 0.000000 -4.965400 11.033500
     CHANNELS 3 Yrotation Xrotation Zrotation
     End Site
     {
      OFFSET 0.000000 -1.423100 5.872300
     }
    }
   }
  }
 }
}
MOTION
Frames: 9
Frame Time: 0.008333
0.000000 85.388000 0.000000 0.000000 -5.767877 0.000000 0.000000 11.653817 0.000000 0.000000 -5.885947 0.000000 0.000000 -0.000000 0.000000 0.000000 -0.000000 0.000000 0.000000 12.528835 0.000000 0.000000 0.711642 0.000000 0.000000 -0.000000 0.000000 0.000000 0.000000 -90.000000 0.000000 -2.309062 0.000000 0.000000 2.309062 0.000000 0.000000 -0.000000 0.000000 0.000000 -0.000000 90.000000 0.000000 -2.309062 0.000000 0.000000 2.309062 0.000000 0.000000 8.520406 0.000000 0.000000 1.905762 0.000000 -0.000000 -4.658285 0.000000 0.000000 -0.000000 0.000000 0.000000 8.520406 0.000000 0.000000 1.905762 0.000000 -0.000000 -4.658285 0.000000 0.000000 -0.000000 0.000000
-223.413184 57.220263 134.576783 -169.095667 -28.068722 -0.767686 -0.261929 20.977388 2.572829 -0.103594 2.749995 0.367771 -0.160296 4.489885 0.598136 -0.376889 17.859025 2.375546 -1.866250 14.064384 -0.792015 -3.206274 -9.674438 -0.767773 2.607076 0.225688 -1.370384 -0.045854 -15.700675 -8.728532 134.110193 -51.336046 -124.410150 10.150748 -21.682095 -51.608122 -6.638563 -0.055527 -2.150434 21.914385 -12.939672 -1.208715 -156.655653 -37.928276 151.340623 -15.421113 -21.465389 37.457161 5.738415 -46.398843 -14.589900 -14.133345 71.997244 -21.874245 4.208731 19.690406 8.141758 -1.084299 -16.486940 8.065147 -7.581466 -45.940606 -5.714073 26.167288 70.193177 22.650034 -17.984409 2.891412 1.289798 -0.022410 0.191186 -0.056951
-223.409885 57.219809 134.580841 -169.107390 -28.065986 -0.771390 -0.260875 20.960097 2.585418 -0.104293 2.748628 0.367655 -0.161315 4.487797 0.598315 -0.378654 17.856687 2.369777 -1.858451 14.123734 -0.789398 -3.191281 -9.529672 -0.759494 2.610132 0.220514 -1.353447 0.017086 -15.755738 -8.669875 134.051488 -51.322718 -124.342644 10.161076 -21.635171 -51.572426 -6.636587 -0.043574 -2.159515 21.829074 -13.024705 -1.240361 -156.581278 -37.857796 151.358217 -15.407520 -21.400257 37.375077 5.717648 -46.410212 -14.573776 -14.111129 71.988996 -21.842779 4.207507 19.709206 8.116390 -1.082606 -16.492120 8.066851 -7.588577 -45.945381 -5.703191 26.180913 70.190772 22.673181 -17.986724 2.888301 1.278252 -0.027849 0.203792 -0.041935
-223.407509 57.220606 134.583012 -169.125831 -28.080896 -0.767206 -0.274325 20.942615 2.587980 -0.091668 2.766562 0.361996 -0.172305 4.465609 0.601678 -0.363636 17.878307 2.360623 -1.853453 14.153216 -0.790224 -3.175791 -9.360190 -0.742719 2.607927 0.206913 -1.335282 0.060873 -15.769245 -8.661057 134.100879 -51.306944 -124.395919 10.139222 -21.668522 -51.583171 -6.664378 -0.064300 -2.159414 21.768009 -13.084734 -1.257656 -156.503196 -37.814833 151.345210 -15.409685 -21.356550 37.318641 5.722545 -46.398601 -14.563834 -14.105659 71.985348 -21.834700 4.206908 19.715256 8.123812 -1.081706 -16.492230 8.053426 -7.591714 -45.933797 -5.695521 26.207394 70.191704 22.699587 -17.980377 2.886722 1.273873 -0.028672 0.206105 -0.038352
-223.404746 57.222175 134.583705 -169.153084 -28.107514 -0.761355 -0.265824 20.951700 2.593835 -0.085963 2.764577 0.361253 -0.178345 4.465468 0.601367 -0.351939 17.892828 2.354640 -1.850355 14.243866 -0.766105 -3.158442 -9.264148 -0.741933 2.589055 0.142802 -1.299458 0.117795 -15.732969 -8.682594 134.160151 -51.282215 -124.459054 10.127100 -21.686715 -51.592097 -6.744614 -0.136724 -2.152762 21.754419 -13.106751 -1.254501 -156.421309 -37.787220 151.316691 -15.418759 -21.329819 37.270500 5.730831 -46.375246 -14.547932 -14.101217 71.981600 -21.828812 4.209765 19.720057 8.134338 -1.085100 -16.491794 8.039230 -7.589086 -45.909358 -5.693688 26.213583 70.191259 22.726854 -17.982322 2.883984 1.243806 -0.013188 0.205957 -0.028384
-223.400884 57.221961 134.587338 -169.185007 -28.113870 -0.755032 -0.257416 20.940528 2.599226 -0.104453 2.745138 0.365657 -0.161574 4.482392 0.594925 -0.347855 17.892897 2.351659 -1.843337 14.325471 -0.751984 -3.135353 -9.143043 -0.738623 2.591079 0.124267 -1.286704 0.236827 -15.838528 -8.676506 134.033146 -51.309725 -124.347260 10.123235 -21.684564 -51.594092 -6.754305 -0.137083 -2.160512 21.683056 -13.181048 -1.260571 -156.340144 -37.753968 151.286466 -15.432889 -21.300506 37.218052 5.738483 -46.372708 -14.533281 -14.091457 71.963575 -21.808944 4.211360 19.744647 8.126355 -1.077337 -16.497786 8.029544 -7.583722 -45.904945 -5.678038 26.229434 70.192048 22.743126 -17.986366 2.881024 1.243801 -0.008097 0.210124 -0.029233
-223.398055 57.222182 134.589836 -169.208600 -28.128207 -0.746510 -0.255331 20.940926 2.597519 -0.098289 2.749694 0.364622 -0.175221 4.470284 0.596146 -0.347509 17.891074 2.350587 -1.831139 14.385521 -0.749380 -3.113524 -8.995579 -0.722955 2.599922 0.105481 -1.276291 0.337435 -15.910314 -8.697215 133.972705 -51.328917 -124.303082 10.120791 -21.684878 -51.595229 -6.758027 -0.135310 -2.172069 21.611711 -13.251536 -1.261570 -156.253929 -37.712195 151.248262 -15.449496 -21.270304 37.165841 5.745686 -46.364844 -14.528369 -14.073439 71.960854 -21.785100 4.215816 19.755206 8.127319 -1.075678 -16.501109 8.016699 -7.584246 -45.896019 -5.670411 26.256834 70.195123 22.767351 -17.985557 2.884154 1.250933 -0.006193 0.205152 -0.041079
-223.394182 57.222627 134.591137 -169.230483 -28.147452 -0.745092 -0.260079 20.942690 2.599135 -0.105826 2.743285 0.365019 -0.156448 4.484049 0.593527 -0.389349 17.858963 2.352662 -1.789482 14.442151 -0.767560 -3.096616 -8.823161 -0.689248 2.643747 0.128831 -1.285009 0.418023 -15.984178 -8.718208 133.947213 -51.335063 -124.296444 10.115962 -21.686971 -51.593685 -6.758654 -0.137677 -2.193526 21.564685 -13.296599 -1.251221 -156.140542 -37.722936 151.193338 -15.477222 -21.300947 37.123332 5.730750 -46.355904 -14.506550 -14.032308 71.963409 -21.750499 4.229315 19.761411 8.138905 -1.085559 -16.504826 7.999827 -7.595428 -45.882632 -5.652565 26.254901 70.206578 22.775470 -17.990525 2.875682 1.230147 0.007990 0.205340 -0.037995
-223.391815 57.222202 134.593707 -169.240157 -28.157576 -0.738223 -0.287712 20.932246 2.585570 -0.107411 2.741859 0.364761 -0.136247 4.496477 0.591805 -0.411373 17.846817 2.352843 -1.772194 14.513047 -0.756508 -3.067681 -8.686630 -0.668609 2.670027 0.129785 -1.286767 0.498148 -16.059791 -8.746252 133.929060 -51.339795 -124.295828 10.098689 -21.634243 -51.570708 -6.821937 -0.196353 -2.187157 21.563511 -13.300577 -1.237238 -156.068211 -37.652416 151.160440 -15.474193 -21.250004 37.057686 5.728914 -46.351540 -14.506697 -14.008960 71.964106 -21.726651 4.229682 19.767114 8.150196 -1.083595 -16.506099 7.979956 -7.613508 -45.879921 -5.641726 26.288952 70.209961 22.793996 -17.984369 2.878047 1.232866 0.004472 0.205529 -0.036597
